<svg id="Layer_1" data-name="Layer 1" xmlns="http://www.w3.org/2000/svg" viewBox="0 0 122.88 121.71"><defs><style>.cls-1{fill-rule:evenodd;}</style></defs><title>add-categories</title><path fill="#d1d5db" class="cls-1" d="M91.32,69.14h10.11a3.75,3.75,0,0,1,3.74,3.74V86.61h13.72a3.75,3.75,0,0,1,3.75,3.74v10.11a3.75,3.75,0,0,1-3.75,3.74H105.17v13.73a3.75,3.75,0,0,1-3.74,3.74H91.32a3.76,3.76,0,0,1-3.75-3.74V104.2H73.85a3.75,3.75,0,0,1-3.74-3.74V90.35a3.75,3.75,0,0,1,3.74-3.74H87.57V72.88a3.76,3.76,0,0,1,3.75-3.74Zm-87.64,0H49.1a3.69,3.69,0,0,1,3.68,3.67V118a3.69,3.69,0,0,1-3.68,3.67H3.68A3.68,3.68,0,0,1,0,118V72.81a3.68,3.68,0,0,1,3.68-3.67ZM73.78,0h45.43a3.68,3.68,0,0,1,3.67,3.67V48.9a3.68,3.68,0,0,1-3.67,3.68H73.78A3.69,3.69,0,0,1,70.1,48.9V3.67A3.69,3.69,0,0,1,73.78,0ZM3.68,0H49.1a3.69,3.69,0,0,1,3.68,3.67V48.9a3.69,3.69,0,0,1-3.68,3.68H3.68A3.68,3.68,0,0,1,0,48.9V3.67A3.68,3.68,0,0,1,3.68,0Z"/></svg>