<svg id="Layer_1" data-name="Layer 1" xmlns="http://www.w3.org/2000/svg" viewBox="0 0 122.88 67.85"><defs><style>.cls-1{fill-rule:evenodd;}</style></defs><title>money-transfer</title><path fill="#d1d5db" class="cls-1" d="M58.41,61.48A29,29,0,0,1,31.93,35.83c-1.52.5-3.06,1.09-4.62,1.75l2.52,12.47L0,30H0L19.72,0l2.57,12.71a44.08,44.08,0,0,1,16.89.46,28.93,28.93,0,0,1,18-9.41,26.48,26.48,0,0,1,3.58-.22A33.12,33.12,0,0,1,68,4.45a29,29,0,0,1,21.8,27.94,56.84,56.84,0,0,0,5.79-2.13L93.05,17.8l29.83,20h0l-19.72,30-2.57-12.72A42.92,42.92,0,0,1,80.53,53.8a29,29,0,0,1-12.46,6.85,30.72,30.72,0,0,1-9.66.83ZM63.57,39.1a3.84,3.84,0,0,0-.3-1.6,2.74,2.74,0,0,0-.94-1.08,9.28,9.28,0,0,0-1.72-.9,48.55,48.55,0,0,1-4.49-2.19,8.75,8.75,0,0,1-3-2.74A7.48,7.48,0,0,1,52,26.3a7.27,7.27,0,0,1,1.19-4.14,7.81,7.81,0,0,1,3.27-2.74,10.72,10.72,0,0,1,3.54-.9v-3.1h3.17V18.6a9.57,9.57,0,0,1,3,.94,8,8,0,0,1,3.29,3.09,9.37,9.37,0,0,1,1.19,4.83H63.74A4,4,0,0,0,63,24.61a2.48,2.48,0,0,0-1.84-.78,2.32,2.32,0,0,0-1.33.35,2,2,0,0,0-.75.94,3.22,3.22,0,0,0-.24,1.26,2.83,2.83,0,0,0,.28,1.3,2.94,2.94,0,0,0,.92,1,10.74,10.74,0,0,0,1.8,1A41,41,0,0,1,66.21,32a9.3,9.3,0,0,1,3.08,2.8,7.46,7.46,0,0,1,1.13,4.28A7.13,7.13,0,0,1,66,46a11.06,11.06,0,0,1-3.27.84v3H59.54v-3a14.52,14.52,0,0,1-2-.39,9.92,9.92,0,0,1-3.29-1.58,7.72,7.72,0,0,1-2.37-2.92,10,10,0,0,1-.9-4.48h6.84a5.79,5.79,0,0,0,.28,1.95,3.24,3.24,0,0,0,.74,1.25,2.69,2.69,0,0,0,1.07.67,3.66,3.66,0,0,0,1.28.21,2.64,2.64,0,0,0,1.4-.33,2,2,0,0,0,.78-.89,3,3,0,0,0,.25-1.21ZM63.2,56.69h0l-.58.05c-.63,0-1.26.07-1.9.07A24.21,24.21,0,0,1,49.73,11h0l.5-.25a24.21,24.21,0,1,1,13,45.9Z"/></svg>