<svg id="Layer_1" data-name="Layer 1" xmlns="http://www.w3.org/2000/svg" viewBox="0 0 122.88 101.4"><defs><style>.cls-1{fill-rule:evenodd;}</style></defs><title>payment-dollar</title><path fill="#d1d5db" class="cls-1" d="M0,48.12H24.83V92.3H0V48.12ZM91.09,24.46A12.43,12.43,0,1,1,78.67,36.89,12.44,12.44,0,0,1,91.09,24.46Zm0-6.44a18.86,18.86,0,1,1-13.34,5.53A18.82,18.82,0,0,1,91.09,18Zm12.07,6.8a17.06,17.06,0,1,0,5,12.07,17,17,0,0,0-5-12.07ZM90.25,43.49a8.19,8.19,0,0,1-1.07-.17,8.87,8.87,0,0,1-2-.67,5.89,5.89,0,0,1-1.59-1.06l1.52-3a4.64,4.64,0,0,0,1.3.92,7.54,7.54,0,0,0,1.64.61,6.25,6.25,0,0,0,1.48.21,3.14,3.14,0,0,0,1.06-.14.52.52,0,0,0,.36-.52.51.51,0,0,0-.3-.44,4.27,4.27,0,0,0-.91-.33l-2.19-.61a7.17,7.17,0,0,1-1.67-.69,3.55,3.55,0,0,1-1.29-1.17,3.14,3.14,0,0,1-.49-1.81,4.4,4.4,0,0,1,.62-2.34,4.16,4.16,0,0,1,1.8-1.55,5.59,5.59,0,0,1,1.71-.48V28.61h2.28v1.67a7.59,7.59,0,0,1,1.78.41,6.44,6.44,0,0,1,2.26,1.37l-1.5,2.75a7.8,7.8,0,0,0-1.74-1.06,5.11,5.11,0,0,0-2.1-.42,3.82,3.82,0,0,0-.91.09,1.11,1.11,0,0,0-.51.26.52.52,0,0,0-.15.38.47.47,0,0,0,.32.44,8.88,8.88,0,0,0,1.34.45l1.56.4a6,6,0,0,1,2.59,1.26A3.09,3.09,0,0,1,96.35,39a4.58,4.58,0,0,1-.67,2.6,3.87,3.87,0,0,1-1.8,1.49,6.39,6.39,0,0,1-1.35.38v1.71H90.25V43.49ZM29.83,88.59V51.67H46.44c7,1.26,14.08,5.08,21.12,9.51h12.9c5.84.35,8.89,6.27,3.22,10.16-4.52,3.31-10.49,3.13-16.6,2.58-4.22-.21-4.41,5.46,0,5.48,1.52.12,3.18-.24,4.64-.24,7.63,0,13.92-1.47,17.77-7.5l1.93-4.51,19.19-9.52c9.6-3.16,16.42,6.89,9.35,13.87A251.41,251.41,0,0,1,77.23,96.65c-10.58,6.44-21.17,6.22-31.76,0L29.83,88.59Zm26-83.11A10.29,10.29,0,1,1,45.54,15.77,10.29,10.29,0,0,1,55.83,5.48Zm0-5.48A15.77,15.77,0,1,1,44.68,4.62,15.75,15.75,0,0,1,55.83,0ZM65.7,5.89a13.94,13.94,0,1,0,4.1,9.88,13.9,13.9,0,0,0-4.1-9.88ZM55.13,21.24c-.29,0-.59-.08-.88-.14a7.81,7.81,0,0,1-1.65-.56,5.22,5.22,0,0,1-1.32-.87l1.27-2.45a3.8,3.8,0,0,0,1.07.76,6.77,6.77,0,0,0,1.36.51,5.53,5.53,0,0,0,1.22.17,2.77,2.77,0,0,0,.88-.11.44.44,0,0,0,.3-.44.4.4,0,0,0-.25-.36,3.32,3.32,0,0,0-.75-.28L54.56,17a5.91,5.91,0,0,1-1.38-.57,3,3,0,0,1-1.07-1,2.62,2.62,0,0,1-.4-1.5A3.65,3.65,0,0,1,52.22,12a3.41,3.41,0,0,1,1.5-1.29,4.85,4.85,0,0,1,1.41-.39V8.91H57v1.38a6.72,6.72,0,0,1,1.47.34,5.55,5.55,0,0,1,1.88,1.14L59.12,14a6.86,6.86,0,0,0-1.44-.88,4.43,4.43,0,0,0-1.74-.34,3,3,0,0,0-.75.08.87.87,0,0,0-.42.21.42.42,0,0,0-.13.31.41.41,0,0,0,.27.37,7.1,7.1,0,0,0,1.11.37l1.29.34a4.91,4.91,0,0,1,2.15,1,2.58,2.58,0,0,1,.72,2,3.85,3.85,0,0,1-.55,2.16,3.36,3.36,0,0,1-1.5,1.23,4.91,4.91,0,0,1-1.11.31v1.42H55.13V21.24Z"/></svg>